# xmcd
#
# Track frame offsets: 
#        150
#        13437
#        28367
#        44357
#        59882
#        71137
#        84447
#        99842
#        114427
#        131577
#        145870
#        158352
#        172782
#        190282
#        204417
#        217417
#        230727
#        242080
#        255562
#
# Disc length: 3596 seconds
#
# Revision: 7
# Processed by: cddbd v1.5.2PL0 Copyright (c) Steve Scherf et al.
# Submitted via: ExactAudioCopyFreeDBPlugin 1.0
#
DISCID=180e0a13
DTITLE=Truck Stop - Wanted! Das Beste von Truck Stop
DYEAR=1996
DGENRE=Country
TTITLE0=Arizona-Arizona
TTITLE1=Lass' dir nie den Tag verderben
TTITLE2=Ich möcht so gern Dave Dudley hör'n
TTITLE3=Alles Bingo
TTITLE4=Großstadtrevier
TTITLE5=Take It Easy, Altes Haus
TTITLE6=Square Dance - Darling
TTITLE7=Ein Tag wie ein Freund
TTITLE8=Old Texas Town, die Westernstadt
TTITLE9=Du bist immer auf Achse
TTITLE10=Der wilde, wilde Westen
TTITLE11=Mein Stiefel kommt in' Himmel
TTITLE12=Wenn es Nacht wird in Old Tucson
TTITLE13=Angeln entspannt
TTITLE14=Die Frau mit dem Gurt
TTITLE15=Gelbe Säcke, blaue Engel
TTITLE16=Erwin der dicke Schneemann
TTITLE17=Das Mädchen wird schöner mit jedem Glas Bier
TTITLE18=Happy Birthday
EXTD=
EXTT0=
EXTT1=
EXTT2=
EXTT3=
EXTT4=
EXTT5=
EXTT6=
EXTT7=
EXTT8=
EXTT9=
EXTT10=
EXTT11=
EXTT12=
EXTT13=
EXTT14=
EXTT15=
EXTT16=
EXTT17=
EXTT18=
PLAYORDER=
